<?xml version="1.0" encoding="UTF-8" standalone="no" ?>
<!DOCTYPE svg PUBLIC "-//W3C//DTD SVG 1.1//EN" "http://www.w3.org/Graphics/SVG/1.1/DTD/svg11.dtd">
<svg xmlns="http://www.w3.org/2000/svg" xmlns:xlink="http://www.w3.org/1999/xlink" version="1.1" width="1080" height="1080" viewBox="0 0 1080 1080" xml:space="preserve">
<desc>Created with Fabric.js 5.2.4</desc>
<defs>
</defs>
<g transform="matrix(1 0 0 1 540 540)" id="7bf103e0-60ca-4da5-a22a-80c79b3eaacc"  >
</g>
<g transform="matrix(1 0 0 1 540 540)" id="a8675bc9-d84c-49f0-aff8-d472e79cad97"  >
<rect style="stroke: none; stroke-width: 1; stroke-dasharray: none; stroke-linecap: butt; stroke-dashoffset: 0; stroke-linejoin: miter; stroke-miterlimit: 4; fill: rgb(255,255,255); fill-rule: nonzero; opacity: 1; visibility: hidden;" vector-effect="non-scaling-stroke"  x="-540" y="-540" rx="0" ry="0" width="1080" height="1080" />
</g>
<g transform="matrix(1 0 0 1 492.2 530.67)"  >
<path style="stroke: none; stroke-width: 1; stroke-dasharray: none; stroke-linecap: butt; stroke-dashoffset: 0; stroke-linejoin: miter; stroke-miterlimit: 4; fill: rgb(74,108,247); fill-rule: nonzero; opacity: 1;" vector-effect="non-scaling-stroke"  transform=" translate(-12.5, -12.5)" d="M 0 0 C 13.8071 0 25 11.1929 25 25 L 2 25 C 0.89543 25 0 24.1046 0 23 z" stroke-linecap="round" />
</g>
<g transform="matrix(0.27 0 0 0.27 539.67 533.98)" style="" id="150bec57-0ff7-4c37-8a91-1c11ec00ea81"  >
		<text xml:space="preserve" font-family="Raleway" font-size="75" font-style="normal" font-weight="900" style="stroke: none; stroke-width: 1; stroke-dasharray: none; stroke-linecap: butt; stroke-dashoffset: 0; stroke-linejoin: miter; stroke-miterlimit: 4; fill: rgb(0,0,0); fill-rule: nonzero; opacity: 1; white-space: pre;" ><tspan x="-109.01" y="23.56" >M</tspan><tspan x="-41.44" y="23.56" >a</tspan><tspan x="7.61" y="23.56" >f</tspan><tspan x="36.86" y="23.56" >i</tspan><tspan x="62.44" y="23.56" >n</tspan></text>
</g>
</svg>