<svg width="48" height="25" viewBox="0 0 48 36" fill="none" xmlns="http://www.w3.org/2000/svg">
<path d="M12 6.5L48 0.5L39 28L0 35.7149L12 6.5Z" fill="#4A6CF7"/>
<path d="M10.7173 14.7273H12.3295L14.4886 19.9972H14.5739L16.733 14.7273H18.3452V22H17.081V17.0036H17.0135L15.0036 21.9787H14.0589L12.049 16.9929H11.9815V22H10.7173V14.7273ZM21.2926 22.1101C20.947 22.1101 20.6357 22.0485 20.3587 21.9254C20.084 21.8 19.8662 21.6153 19.7053 21.3714C19.5466 21.1276 19.4673 20.8269 19.4673 20.4695C19.4673 20.1617 19.5241 19.9072 19.6378 19.706C19.7514 19.5047 19.9065 19.3438 20.103 19.223C20.2995 19.1023 20.5208 19.0111 20.767 18.9496C21.0156 18.8857 21.2725 18.8395 21.5376 18.8111C21.8572 18.7779 22.1165 18.7483 22.3153 18.7223C22.5142 18.6939 22.6586 18.6513 22.7486 18.5945C22.8409 18.5353 22.8871 18.4441 22.8871 18.321V18.2997C22.8871 18.0322 22.8078 17.825 22.6491 17.6783C22.4905 17.5315 22.2621 17.4581 21.9638 17.4581C21.6489 17.4581 21.3991 17.5268 21.2145 17.6641C21.0322 17.8014 20.9091 17.9635 20.8452 18.1506L19.6449 17.9801C19.7396 17.6487 19.8958 17.3717 20.1136 17.1491C20.3314 16.9242 20.5978 16.7562 20.9126 16.6449C21.2275 16.5312 21.5755 16.4744 21.9567 16.4744C22.2195 16.4744 22.4811 16.5052 22.7415 16.5668C23.0019 16.6283 23.2398 16.7301 23.4553 16.8722C23.6707 17.0118 23.8435 17.2024 23.9737 17.4439C24.1063 17.6854 24.1726 17.9872 24.1726 18.3494V22H22.9368V21.2507H22.8942C22.8161 21.4022 22.706 21.5443 22.5639 21.6768C22.4242 21.8071 22.2479 21.9124 22.0348 21.9929C21.8241 22.071 21.5767 22.1101 21.2926 22.1101ZM21.6264 21.1655C21.8845 21.1655 22.1082 21.1146 22.2976 21.0128C22.487 20.9086 22.6326 20.7713 22.7344 20.6009C22.8385 20.4304 22.8906 20.2446 22.8906 20.0433V19.4006C22.8504 19.4337 22.7817 19.4645 22.6847 19.4929C22.59 19.5213 22.4834 19.5462 22.3651 19.5675C22.2467 19.5888 22.1295 19.6077 22.0135 19.6243C21.8975 19.6409 21.7969 19.6551 21.7116 19.6669C21.5199 19.6929 21.3482 19.7356 21.1967 19.7947C21.0452 19.8539 20.9257 19.9368 20.8381 20.0433C20.7505 20.1475 20.7067 20.2824 20.7067 20.4482C20.7067 20.6849 20.7931 20.8636 20.9659 20.9844C21.1387 21.1051 21.3589 21.1655 21.6264 21.1655ZM28.228 16.5455V17.5398H25.0036V16.5455H28.228ZM25.8097 22V16.0305C25.8097 15.6636 25.8854 15.3582 26.0369 15.1143C26.1908 14.8705 26.3968 14.6882 26.6548 14.5675C26.9129 14.4467 27.1993 14.3864 27.5142 14.3864C27.7367 14.3864 27.9344 14.4041 28.1072 14.4396C28.2801 14.4751 28.4079 14.5071 28.4908 14.5355L28.2351 15.5298C28.1806 15.5133 28.112 15.4967 28.0291 15.4801C27.9463 15.4612 27.8539 15.4517 27.7521 15.4517C27.513 15.4517 27.3438 15.5097 27.2443 15.6257C27.1473 15.7393 27.0987 15.9027 27.0987 16.1158V22H25.8097ZM29.2347 22V16.5455H30.5202V22H29.2347ZM29.881 15.7713C29.6774 15.7713 29.5022 15.7038 29.3555 15.5689C29.2087 15.4316 29.1353 15.267 29.1353 15.0753C29.1353 14.8812 29.2087 14.7166 29.3555 14.5817C29.5022 14.4444 29.6774 14.3757 29.881 14.3757C30.087 14.3757 30.2622 14.4444 30.4066 14.5817C30.5534 14.7166 30.6268 14.8812 30.6268 15.0753C30.6268 15.267 30.5534 15.4316 30.4066 15.5689C30.2622 15.7038 30.087 15.7713 29.881 15.7713ZM33.1277 18.804V22H31.8422V16.5455H33.0708V17.4723H33.1348C33.2602 17.1669 33.4603 16.9242 33.7349 16.7443C34.0119 16.5644 34.354 16.4744 34.7612 16.4744C35.1376 16.4744 35.4655 16.5549 35.7449 16.7159C36.0266 16.8769 36.2444 17.1101 36.3983 17.4155C36.5545 17.7209 36.6315 18.0914 36.6291 18.527V22H35.3436V18.7259C35.3436 18.3613 35.2489 18.076 35.0595 17.87C34.8725 17.6641 34.6132 17.5611 34.2818 17.5611C34.0569 17.5611 33.8568 17.6108 33.6816 17.7102C33.5088 17.8073 33.3727 17.9482 33.2733 18.1328C33.1762 18.3175 33.1277 18.5412 33.1277 18.804Z" fill="white"/>
</svg>
